<mxfile host="app.diagrams.net" modified="2023-11-13T09:25:31.922Z" agent="Mozilla/5.0 (Macintosh; Intel Mac OS X 10_15_7) AppleWebKit/537.36 (KHTML, like Gecko) Chrome/119.0.0.0 Safari/537.36" etag="cANx2XpdKFU3YH6tPuiG" version="22.1.0" type="github">
  <diagram name="Page-1" id="JcwvRXh8fehNPFBF6PG1">
    <mxGraphModel dx="1381" dy="846" grid="1" gridSize="10" guides="1" tooltips="1" connect="1" arrows="1" fold="1" page="1" pageScale="1" pageWidth="850" pageHeight="1100" math="0" shadow="0">
      <root>
        <mxCell id="0" />
        <mxCell id="1" parent="0" />
        <mxCell id="c1ondT2D3TYu2VIoZrk9-1" value="Projet" style="swimlane;fontStyle=0;childLayout=stackLayout;horizontal=1;startSize=30;horizontalStack=0;resizeParent=1;resizeParentMax=0;resizeLast=0;collapsible=1;marginBottom=0;whiteSpace=wrap;html=1;fillColor=#f5f5f5;fontColor=#333333;strokeColor=#666666;" parent="1" vertex="1">
          <mxGeometry x="40" y="170" width="140" height="240" as="geometry">
            <mxRectangle x="70" y="180" width="70" height="30" as="alternateBounds" />
          </mxGeometry>
        </mxCell>
        <mxCell id="c1ondT2D3TYu2VIoZrk9-2" value="&lt;u&gt;code&lt;/u&gt;" style="text;strokeColor=none;fillColor=none;align=left;verticalAlign=middle;spacingLeft=4;spacingRight=4;overflow=hidden;points=[[0,0.5],[1,0.5]];portConstraint=eastwest;rotatable=0;whiteSpace=wrap;html=1;" parent="c1ondT2D3TYu2VIoZrk9-1" vertex="1">
          <mxGeometry y="30" width="140" height="30" as="geometry" />
        </mxCell>
        <mxCell id="c1ondT2D3TYu2VIoZrk9-3" value="nom" style="text;strokeColor=none;fillColor=none;align=left;verticalAlign=middle;spacingLeft=4;spacingRight=4;overflow=hidden;points=[[0,0.5],[1,0.5]];portConstraint=eastwest;rotatable=0;whiteSpace=wrap;html=1;" parent="c1ondT2D3TYu2VIoZrk9-1" vertex="1">
          <mxGeometry y="60" width="140" height="30" as="geometry" />
        </mxCell>
        <mxCell id="c1ondT2D3TYu2VIoZrk9-4" value="descritption" style="text;strokeColor=none;fillColor=none;align=left;verticalAlign=middle;spacingLeft=4;spacingRight=4;overflow=hidden;points=[[0,0.5],[1,0.5]];portConstraint=eastwest;rotatable=0;whiteSpace=wrap;html=1;" parent="c1ondT2D3TYu2VIoZrk9-1" vertex="1">
          <mxGeometry y="90" width="140" height="30" as="geometry" />
        </mxCell>
        <mxCell id="c1ondT2D3TYu2VIoZrk9-6" value="client" style="text;strokeColor=none;fillColor=none;align=left;verticalAlign=middle;spacingLeft=4;spacingRight=4;overflow=hidden;points=[[0,0.5],[1,0.5]];portConstraint=eastwest;rotatable=0;whiteSpace=wrap;html=1;" parent="c1ondT2D3TYu2VIoZrk9-1" vertex="1">
          <mxGeometry y="120" width="140" height="30" as="geometry" />
        </mxCell>
        <mxCell id="c1ondT2D3TYu2VIoZrk9-13" value="dateDebut" style="text;strokeColor=none;fillColor=none;align=left;verticalAlign=middle;spacingLeft=4;spacingRight=4;overflow=hidden;points=[[0,0.5],[1,0.5]];portConstraint=eastwest;rotatable=0;whiteSpace=wrap;html=1;" parent="c1ondT2D3TYu2VIoZrk9-1" vertex="1">
          <mxGeometry y="150" width="140" height="30" as="geometry" />
        </mxCell>
        <mxCell id="c1ondT2D3TYu2VIoZrk9-12" value="dateFin" style="text;strokeColor=none;fillColor=none;align=left;verticalAlign=middle;spacingLeft=4;spacingRight=4;overflow=hidden;points=[[0,0.5],[1,0.5]];portConstraint=eastwest;rotatable=0;whiteSpace=wrap;html=1;" parent="c1ondT2D3TYu2VIoZrk9-1" vertex="1">
          <mxGeometry y="180" width="140" height="30" as="geometry" />
        </mxCell>
        <mxCell id="c1ondT2D3TYu2VIoZrk9-14" value="montant" style="text;strokeColor=none;fillColor=none;align=left;verticalAlign=middle;spacingLeft=4;spacingRight=4;overflow=hidden;points=[[0,0.5],[1,0.5]];portConstraint=eastwest;rotatable=0;whiteSpace=wrap;html=1;" parent="c1ondT2D3TYu2VIoZrk9-1" vertex="1">
          <mxGeometry y="210" width="140" height="30" as="geometry" />
        </mxCell>
        <mxCell id="c1ondT2D3TYu2VIoZrk9-16" value="Phase" style="swimlane;fontStyle=0;childLayout=stackLayout;horizontal=1;startSize=30;horizontalStack=0;resizeParent=1;resizeParentMax=0;resizeLast=0;collapsible=1;marginBottom=0;whiteSpace=wrap;html=1;fillColor=#f5f5f5;fontColor=#333333;strokeColor=#666666;" parent="1" vertex="1">
          <mxGeometry x="380" y="170" width="140" height="240" as="geometry">
            <mxRectangle x="70" y="180" width="70" height="30" as="alternateBounds" />
          </mxGeometry>
        </mxCell>
        <mxCell id="c1ondT2D3TYu2VIoZrk9-17" value="&lt;u&gt;numero&lt;/u&gt;" style="text;strokeColor=none;fillColor=none;align=left;verticalAlign=middle;spacingLeft=4;spacingRight=4;overflow=hidden;points=[[0,0.5],[1,0.5]];portConstraint=eastwest;rotatable=0;whiteSpace=wrap;html=1;" parent="c1ondT2D3TYu2VIoZrk9-16" vertex="1">
          <mxGeometry y="30" width="140" height="30" as="geometry" />
        </mxCell>
        <mxCell id="c1ondT2D3TYu2VIoZrk9-18" value="label" style="text;strokeColor=none;fillColor=none;align=left;verticalAlign=middle;spacingLeft=4;spacingRight=4;overflow=hidden;points=[[0,0.5],[1,0.5]];portConstraint=eastwest;rotatable=0;whiteSpace=wrap;html=1;" parent="c1ondT2D3TYu2VIoZrk9-16" vertex="1">
          <mxGeometry y="60" width="140" height="30" as="geometry" />
        </mxCell>
        <mxCell id="c1ondT2D3TYu2VIoZrk9-19" value="descritption" style="text;strokeColor=none;fillColor=none;align=left;verticalAlign=middle;spacingLeft=4;spacingRight=4;overflow=hidden;points=[[0,0.5],[1,0.5]];portConstraint=eastwest;rotatable=0;whiteSpace=wrap;html=1;" parent="c1ondT2D3TYu2VIoZrk9-16" vertex="1">
          <mxGeometry y="90" width="140" height="30" as="geometry" />
        </mxCell>
        <mxCell id="c1ondT2D3TYu2VIoZrk9-21" value="dateDebut" style="text;strokeColor=none;fillColor=none;align=left;verticalAlign=middle;spacingLeft=4;spacingRight=4;overflow=hidden;points=[[0,0.5],[1,0.5]];portConstraint=eastwest;rotatable=0;whiteSpace=wrap;html=1;" parent="c1ondT2D3TYu2VIoZrk9-16" vertex="1">
          <mxGeometry y="120" width="140" height="30" as="geometry" />
        </mxCell>
        <mxCell id="c1ondT2D3TYu2VIoZrk9-22" value="dateFin" style="text;strokeColor=none;fillColor=none;align=left;verticalAlign=middle;spacingLeft=4;spacingRight=4;overflow=hidden;points=[[0,0.5],[1,0.5]];portConstraint=eastwest;rotatable=0;whiteSpace=wrap;html=1;" parent="c1ondT2D3TYu2VIoZrk9-16" vertex="1">
          <mxGeometry y="150" width="140" height="30" as="geometry" />
        </mxCell>
        <mxCell id="c1ondT2D3TYu2VIoZrk9-24" value="montant" style="text;strokeColor=none;fillColor=none;align=left;verticalAlign=middle;spacingLeft=4;spacingRight=4;overflow=hidden;points=[[0,0.5],[1,0.5]];portConstraint=eastwest;rotatable=0;whiteSpace=wrap;html=1;" parent="c1ondT2D3TYu2VIoZrk9-16" vertex="1">
          <mxGeometry y="180" width="140" height="30" as="geometry" />
        </mxCell>
        <mxCell id="tyv46yjVIW6z6vfQqK9z-3" value="documents" style="text;strokeColor=none;fillColor=none;align=left;verticalAlign=middle;spacingLeft=4;spacingRight=4;overflow=hidden;points=[[0,0.5],[1,0.5]];portConstraint=eastwest;rotatable=0;whiteSpace=wrap;html=1;" parent="c1ondT2D3TYu2VIoZrk9-16" vertex="1">
          <mxGeometry y="210" width="140" height="30" as="geometry" />
        </mxCell>
        <mxCell id="c1ondT2D3TYu2VIoZrk9-25" style="rounded=0;orthogonalLoop=1;jettySize=auto;html=1;entryX=0;entryY=0.5;entryDx=0;entryDy=0;edgeStyle=orthogonalEdgeStyle;curved=1;" parent="1" source="c1ondT2D3TYu2VIoZrk9-6" target="c1ondT2D3TYu2VIoZrk9-19" edge="1">
          <mxGeometry relative="1" as="geometry" />
        </mxCell>
        <mxCell id="c1ondT2D3TYu2VIoZrk9-26" value="contient" style="ellipse;whiteSpace=wrap;html=1;" parent="1" vertex="1">
          <mxGeometry x="240" y="260" width="90" height="60" as="geometry" />
        </mxCell>
        <mxCell id="tyv46yjVIW6z6vfQqK9z-1" value="1, *" style="text;html=1;align=center;verticalAlign=middle;resizable=0;points=[];autosize=1;strokeColor=none;fillColor=none;" parent="1" vertex="1">
          <mxGeometry x="180" y="268" width="40" height="30" as="geometry" />
        </mxCell>
        <mxCell id="tyv46yjVIW6z6vfQqK9z-2" value="1,1" style="text;html=1;align=center;verticalAlign=middle;resizable=0;points=[];autosize=1;strokeColor=none;fillColor=none;" parent="1" vertex="1">
          <mxGeometry x="330" y="238" width="40" height="30" as="geometry" />
        </mxCell>
        <mxCell id="tyv46yjVIW6z6vfQqK9z-4" value="Employe" style="swimlane;fontStyle=0;childLayout=stackLayout;horizontal=1;startSize=30;horizontalStack=0;resizeParent=1;resizeParentMax=0;resizeLast=0;collapsible=1;marginBottom=0;whiteSpace=wrap;html=1;" parent="1" vertex="1">
          <mxGeometry x="30" y="540" width="140" height="270" as="geometry" />
        </mxCell>
        <mxCell id="tyv46yjVIW6z6vfQqK9z-5" value="&lt;u&gt;matricule&lt;/u&gt;" style="text;strokeColor=none;fillColor=none;align=left;verticalAlign=middle;spacingLeft=4;spacingRight=4;overflow=hidden;points=[[0,0.5],[1,0.5]];portConstraint=eastwest;rotatable=0;whiteSpace=wrap;html=1;" parent="tyv46yjVIW6z6vfQqK9z-4" vertex="1">
          <mxGeometry y="30" width="140" height="30" as="geometry" />
        </mxCell>
        <mxCell id="tyv46yjVIW6z6vfQqK9z-6" value="nom" style="text;strokeColor=none;fillColor=none;align=left;verticalAlign=middle;spacingLeft=4;spacingRight=4;overflow=hidden;points=[[0,0.5],[1,0.5]];portConstraint=eastwest;rotatable=0;whiteSpace=wrap;html=1;" parent="tyv46yjVIW6z6vfQqK9z-4" vertex="1">
          <mxGeometry y="60" width="140" height="30" as="geometry" />
        </mxCell>
        <mxCell id="tyv46yjVIW6z6vfQqK9z-11" value="prenom" style="text;strokeColor=none;fillColor=none;align=left;verticalAlign=middle;spacingLeft=4;spacingRight=4;overflow=hidden;points=[[0,0.5],[1,0.5]];portConstraint=eastwest;rotatable=0;whiteSpace=wrap;html=1;" parent="tyv46yjVIW6z6vfQqK9z-4" vertex="1">
          <mxGeometry y="90" width="140" height="30" as="geometry" />
        </mxCell>
        <mxCell id="tyv46yjVIW6z6vfQqK9z-7" value="tel" style="text;strokeColor=none;fillColor=none;align=left;verticalAlign=middle;spacingLeft=4;spacingRight=4;overflow=hidden;points=[[0,0.5],[1,0.5]];portConstraint=eastwest;rotatable=0;whiteSpace=wrap;html=1;" parent="tyv46yjVIW6z6vfQqK9z-4" vertex="1">
          <mxGeometry y="120" width="140" height="30" as="geometry" />
        </mxCell>
        <mxCell id="tyv46yjVIW6z6vfQqK9z-8" value="email" style="text;strokeColor=none;fillColor=none;align=left;verticalAlign=middle;spacingLeft=4;spacingRight=4;overflow=hidden;points=[[0,0.5],[1,0.5]];portConstraint=eastwest;rotatable=0;whiteSpace=wrap;html=1;" parent="tyv46yjVIW6z6vfQqK9z-4" vertex="1">
          <mxGeometry y="150" width="140" height="30" as="geometry" />
        </mxCell>
        <mxCell id="tyv46yjVIW6z6vfQqK9z-10" value="login" style="text;strokeColor=none;fillColor=none;align=left;verticalAlign=middle;spacingLeft=4;spacingRight=4;overflow=hidden;points=[[0,0.5],[1,0.5]];portConstraint=eastwest;rotatable=0;whiteSpace=wrap;html=1;" parent="tyv46yjVIW6z6vfQqK9z-4" vertex="1">
          <mxGeometry y="180" width="140" height="30" as="geometry" />
        </mxCell>
        <mxCell id="tyv46yjVIW6z6vfQqK9z-9" value="mdp" style="text;strokeColor=none;fillColor=none;align=left;verticalAlign=middle;spacingLeft=4;spacingRight=4;overflow=hidden;points=[[0,0.5],[1,0.5]];portConstraint=eastwest;rotatable=0;whiteSpace=wrap;html=1;" parent="tyv46yjVIW6z6vfQqK9z-4" vertex="1">
          <mxGeometry y="210" width="140" height="30" as="geometry" />
        </mxCell>
        <mxCell id="tyv46yjVIW6z6vfQqK9z-12" value="profil" style="text;strokeColor=none;fillColor=none;align=left;verticalAlign=middle;spacingLeft=4;spacingRight=4;overflow=hidden;points=[[0,0.5],[1,0.5]];portConstraint=eastwest;rotatable=0;whiteSpace=wrap;html=1;" parent="tyv46yjVIW6z6vfQqK9z-4" vertex="1">
          <mxGeometry y="240" width="140" height="30" as="geometry" />
        </mxCell>
        <mxCell id="tyv46yjVIW6z6vfQqK9z-14" value="Organisme" style="swimlane;fontStyle=0;childLayout=stackLayout;horizontal=1;startSize=30;horizontalStack=0;resizeParent=1;resizeParentMax=0;resizeLast=0;collapsible=1;marginBottom=0;whiteSpace=wrap;html=1;" parent="1" vertex="1">
          <mxGeometry x="510" y="470" width="140" height="210" as="geometry" />
        </mxCell>
        <mxCell id="tyv46yjVIW6z6vfQqK9z-15" value="&lt;u&gt;code&lt;/u&gt;" style="text;strokeColor=none;fillColor=none;align=left;verticalAlign=middle;spacingLeft=4;spacingRight=4;overflow=hidden;points=[[0,0.5],[1,0.5]];portConstraint=eastwest;rotatable=0;whiteSpace=wrap;html=1;" parent="tyv46yjVIW6z6vfQqK9z-14" vertex="1">
          <mxGeometry y="30" width="140" height="30" as="geometry" />
        </mxCell>
        <mxCell id="tyv46yjVIW6z6vfQqK9z-16" value="nom" style="text;strokeColor=none;fillColor=none;align=left;verticalAlign=middle;spacingLeft=4;spacingRight=4;overflow=hidden;points=[[0,0.5],[1,0.5]];portConstraint=eastwest;rotatable=0;whiteSpace=wrap;html=1;" parent="tyv46yjVIW6z6vfQqK9z-14" vertex="1">
          <mxGeometry y="60" width="140" height="30" as="geometry" />
        </mxCell>
        <mxCell id="tyv46yjVIW6z6vfQqK9z-17" value="tel" style="text;strokeColor=none;fillColor=none;align=left;verticalAlign=middle;spacingLeft=4;spacingRight=4;overflow=hidden;points=[[0,0.5],[1,0.5]];portConstraint=eastwest;rotatable=0;whiteSpace=wrap;html=1;" parent="tyv46yjVIW6z6vfQqK9z-14" vertex="1">
          <mxGeometry y="90" width="140" height="30" as="geometry" />
        </mxCell>
        <mxCell id="tyv46yjVIW6z6vfQqK9z-18" value="nomContact" style="text;strokeColor=none;fillColor=none;align=left;verticalAlign=middle;spacingLeft=4;spacingRight=4;overflow=hidden;points=[[0,0.5],[1,0.5]];portConstraint=eastwest;rotatable=0;whiteSpace=wrap;html=1;" parent="tyv46yjVIW6z6vfQqK9z-14" vertex="1">
          <mxGeometry y="120" width="140" height="30" as="geometry" />
        </mxCell>
        <mxCell id="tyv46yjVIW6z6vfQqK9z-20" value="email" style="text;strokeColor=none;fillColor=none;align=left;verticalAlign=middle;spacingLeft=4;spacingRight=4;overflow=hidden;points=[[0,0.5],[1,0.5]];portConstraint=eastwest;rotatable=0;whiteSpace=wrap;html=1;" parent="tyv46yjVIW6z6vfQqK9z-14" vertex="1">
          <mxGeometry y="150" width="140" height="30" as="geometry" />
        </mxCell>
        <mxCell id="tyv46yjVIW6z6vfQqK9z-19" value="adresseWeb" style="text;strokeColor=none;fillColor=none;align=left;verticalAlign=middle;spacingLeft=4;spacingRight=4;overflow=hidden;points=[[0,0.5],[1,0.5]];portConstraint=eastwest;rotatable=0;whiteSpace=wrap;html=1;" parent="tyv46yjVIW6z6vfQqK9z-14" vertex="1">
          <mxGeometry y="180" width="140" height="30" as="geometry" />
        </mxCell>
        <mxCell id="tyv46yjVIW6z6vfQqK9z-23" style="edgeStyle=orthogonalEdgeStyle;rounded=0;orthogonalLoop=1;jettySize=auto;html=1;curved=1;" parent="1" source="tyv46yjVIW6z6vfQqK9z-21" target="tyv46yjVIW6z6vfQqK9z-17" edge="1">
          <mxGeometry relative="1" as="geometry" />
        </mxCell>
        <mxCell id="tyv46yjVIW6z6vfQqK9z-21" value="appartient" style="ellipse;whiteSpace=wrap;html=1;" parent="1" vertex="1">
          <mxGeometry x="310" y="570" width="90" height="60" as="geometry" />
        </mxCell>
        <mxCell id="tyv46yjVIW6z6vfQqK9z-22" style="edgeStyle=orthogonalEdgeStyle;rounded=0;orthogonalLoop=1;jettySize=auto;html=1;curved=1;entryX=0;entryY=0.5;entryDx=0;entryDy=0;" parent="1" source="tyv46yjVIW6z6vfQqK9z-7" target="tyv46yjVIW6z6vfQqK9z-21" edge="1">
          <mxGeometry relative="1" as="geometry" />
        </mxCell>
        <mxCell id="tyv46yjVIW6z6vfQqK9z-24" value="1,1" style="text;html=1;align=center;verticalAlign=middle;resizable=0;points=[];autosize=1;strokeColor=none;fillColor=none;" parent="1" vertex="1">
          <mxGeometry x="180" y="630" width="40" height="30" as="geometry" />
        </mxCell>
        <mxCell id="tyv46yjVIW6z6vfQqK9z-25" value="1,*" style="text;html=1;align=center;verticalAlign=middle;resizable=0;points=[];autosize=1;strokeColor=none;fillColor=none;" parent="1" vertex="1">
          <mxGeometry x="440" y="548" width="40" height="30" as="geometry" />
        </mxCell>
        <mxCell id="tyv46yjVIW6z6vfQqK9z-26" value="chargé" style="ellipse;whiteSpace=wrap;html=1;" parent="1" vertex="1">
          <mxGeometry x="240" y="450" width="90" height="60" as="geometry" />
        </mxCell>
        <mxCell id="tyv46yjVIW6z6vfQqK9z-29" value="1,*" style="text;html=1;align=center;verticalAlign=middle;resizable=0;points=[];autosize=1;strokeColor=none;fillColor=none;" parent="1" vertex="1">
          <mxGeometry x="90" y="480" width="40" height="30" as="geometry" />
        </mxCell>
        <mxCell id="tyv46yjVIW6z6vfQqK9z-30" value="1,*" style="text;html=1;align=center;verticalAlign=middle;resizable=0;points=[];autosize=1;strokeColor=none;fillColor=none;" parent="1" vertex="1">
          <mxGeometry x="420" y="430" width="40" height="30" as="geometry" />
        </mxCell>
        <mxCell id="tyv46yjVIW6z6vfQqK9z-32" style="edgeStyle=orthogonalEdgeStyle;rounded=0;orthogonalLoop=1;jettySize=auto;html=1;entryX=0.573;entryY=0.004;entryDx=0;entryDy=0;entryPerimeter=0;curved=1;" parent="1" source="tyv46yjVIW6z6vfQqK9z-26" target="tyv46yjVIW6z6vfQqK9z-4" edge="1">
          <mxGeometry relative="1" as="geometry" />
        </mxCell>
        <mxCell id="tyv46yjVIW6z6vfQqK9z-33" style="edgeStyle=orthogonalEdgeStyle;rounded=0;orthogonalLoop=1;jettySize=auto;html=1;entryX=0.502;entryY=1.133;entryDx=0;entryDy=0;entryPerimeter=0;curved=1;" parent="1" source="tyv46yjVIW6z6vfQqK9z-26" target="tyv46yjVIW6z6vfQqK9z-3" edge="1">
          <mxGeometry relative="1" as="geometry">
            <Array as="points">
              <mxPoint x="285" y="430" />
              <mxPoint x="450" y="430" />
            </Array>
          </mxGeometry>
        </mxCell>
        <mxCell id="tyv46yjVIW6z6vfQqK9z-34" value="&lt;font style=&quot;font-size: 19px;&quot;&gt;Projet (&lt;u&gt;code, &lt;/u&gt;nom, prenom, tel, email, login, mdp, profil)&lt;br&gt;Phase (&lt;u&gt;numero,&lt;/u&gt;&amp;nbsp;label, description, dateDebut, dateFin, monatant, documents, #codeProjet)&lt;br&gt;Employe (&lt;u&gt;matricule,&amp;nbsp;&lt;/u&gt;nom, prenom, tel, email, login, mdp, profil, #codeOrganisme)&lt;br&gt;Organisme (&lt;u&gt;code,&lt;/u&gt; nom, tel, nomContact, email, adresseWeb)&lt;br&gt;Charge (&lt;u&gt;#numero, #matricule&lt;/u&gt;)&lt;/font&gt;" style="text;html=1;align=left;verticalAlign=middle;resizable=0;points=[];autosize=1;strokeColor=none;fillColor=none;strokeWidth=0;" parent="1" vertex="1">
          <mxGeometry x="30" y="840" width="790" height="130" as="geometry" />
        </mxCell>
      </root>
    </mxGraphModel>
  </diagram>
</mxfile>
